<?xml version="1.0" encoding="UTF-8" standalone="no"?>
<!-- Generator: Adobe Illustrator 19.0.0, SVG Export Plug-In . SVG Version: 6.00 Build 0)  -->

<svg
   xmlns:dc="http://purl.org/dc/elements/1.1/"
   xmlns:cc="http://creativecommons.org/ns#"
   xmlns:rdf="http://www.w3.org/1999/02/22-rdf-syntax-ns#"
   xmlns:svg="http://www.w3.org/2000/svg"
   xmlns="http://www.w3.org/2000/svg"
   xmlns:sodipodi="http://sodipodi.sourceforge.net/DTD/sodipodi-0.dtd"
   xmlns:inkscape="http://www.inkscape.org/namespaces/inkscape"
   version="1.1"
   id="Capa_1"
   x="0px"
   y="0px"
   viewBox="0 0 512.002 512.002"
   style="enable-background:new 0 0 512.002 512.002;"
   xml:space="preserve"
   sodipodi:docname="001-sent1.svg"
   inkscape:version="0.92.3 (2405546, 2018-03-11)"><metadata
   id="metadata47"><rdf:RDF><cc:Work
       rdf:about=""><dc:format>image/svg+xml</dc:format><dc:type
         rdf:resource="http://purl.org/dc/dcmitype/StillImage" /><dc:title></dc:title></cc:Work></rdf:RDF></metadata><defs
   id="defs45">
		
	</defs><sodipodi:namedview
   pagecolor="#ffffff"
   bordercolor="#666666"
   borderopacity="1"
   objecttolerance="10"
   gridtolerance="10"
   guidetolerance="10"
   inkscape:pageopacity="0"
   inkscape:pageshadow="2"
   inkscape:window-width="715"
   inkscape:window-height="481"
   id="namedview43"
   showgrid="false"
   inkscape:zoom="0.46093569"
   inkscape:cx="228.06545"
   inkscape:cy="256.00101"
   inkscape:window-x="19"
   inkscape:window-y="20"
   inkscape:window-maximized="0"
   inkscape:current-layer="g6" />
<g
   id="g10">
	<g
   id="g6"
   transform="translate(-154.0345,4.3390001)">
			
			<g
   id="g56"
   transform="translate(-43.390001,-2.1695001)"><path
     style="fill:#f9f9f9;stroke:#000000;stroke-width:1.00216234"
     d="m 474.27191,201.33723 c -0.0864,-0.008 -0.17375,-0.013 -0.26113,-0.02 -0.51824,-0.042 -1.03748,-0.073 -1.55973,-0.094 -0.0813,-0.003 -0.1617,-0.012 -0.24305,-0.015 L 315.78905,163.76739 V 138.4875 h 24.17733 c 8.26868,0 15.57621,-4.63598 19.07129,-12.09795 3.49508,-7.46197 2.3642,-16.01593 -2.95174,-22.32291 L 275.64282,8.6170448 c -4.6129,-5.4749769 -11.37809,-8.61596361 -18.55707,-8.61596361 -7.17898,0 -13.94417,3.14098671 -18.55908,8.61696361 L 158.08356,104.06864 c -5.31494,6.30698 -6.44682,14.85994 -2.95174,22.32191 3.49408,7.46197 10.80261,12.09795 19.07129,12.09795 h 24.17733 v 25.26789 L 41.778703,201.20923 c -0.121525,0.004 -0.24104,0.017 -0.36156,0.022 -0.191828,0.008 -0.382651,0.023 -0.573475,0.035 -0.488106,0.029 -0.974204,0.063 -1.458292,0.111 -0.03917,0.004 -0.07834,0.009 -0.118512,0.013 -9.54117,0.97 -18.365246,5.56198 -24.633292,12.94795 -0.323396,0.38099 -0.603605,0.78899 -0.863727,1.20799 -4.8981354,6.27397 -7.8247638,14.14494 -7.8247638,22.68791 v 236.718 c 0,9.13496 3.3494528,17.49792 8.8763008,23.96389 0.02511,0.032 0.04821,0.067 0.07532,0.099 0.0231,0.027 0.04821,0.052 0.07131,0.079 0.409768,0.473 0.828575,0.939 1.261443,1.391 0.0221,0.023 0.04519,0.047 0.06729,0.07 0.43588,0.454 0.883813,0.89599 1.339781,1.32499 0.03415,0.032 0.06829,0.065 0.102442,0.098 0.472037,0.441 0.954117,0.869 1.447245,1.284 0.008,0.007 0.01707,0.015 0.02511,0.022 0.63273,0.53099 1.283538,1.04099 1.95142,1.52999 2.018711,1.47799 4.17602,2.74399 6.438783,3.78398 0.009,0.004 0.01808,0.008 0.02712,0.012 0.590548,0.271 1.188126,0.526 1.791731,0.765 0.01607,0.006 0.03113,0.012 0.0472,0.019 0.600592,0.237 1.208214,0.459 1.821862,0.665 0.01506,0.005 0.02913,0.01 0.04419,0.015 0.615657,0.206 1.23734,0.396 1.865048,0.56999 0.01205,0.003 0.02511,0.007 0.03716,0.011 0.626705,0.173 1.259435,0.33 1.896182,0.47 0.01506,0.003 0.02913,0.007 0.04419,0.01 0.633735,0.139 1.272491,0.261 1.915265,0.367 0.01808,0.003 0.03616,0.007 0.05423,0.01 0.635743,0.104 1.275503,0.19 1.919281,0.261 0.02511,0.003 0.05022,0.007 0.07633,0.01 0.647795,0.07 1.298603,0.123 1.95142,0.159 0.01908,0.001 0.03816,0.003 0.05725,0.004 0.66286,0.035 1.328733,0.055 2.000633,0.055 h 0.02712 427.843142 0.0271 c 0.12655,0 0.25209,-0.009 0.37864,-0.01 0.52225,-0.005 1.0435,-0.015 1.56174,-0.042 0.29527,-0.015 0.58753,-0.045 0.8808,-0.067 0.35352,-0.027 0.70805,-0.049 1.05957,-0.086 0.31636,-0.033 0.63072,-0.079 0.94508,-0.12 0.3244,-0.042 0.6498,-0.081 0.97219,-0.132 0.32842,-0.052 0.65282,-0.114 0.97923,-0.175 0.3013,-0.056 0.6036,-0.109 0.90289,-0.172 0.34449,-0.072 0.68496,-0.155 1.02643,-0.236 0.26916,-0.065 0.53933,-0.129 0.80648,-0.199 0.3706,-0.098 0.73919,-0.204 1.10577,-0.31299 0.22196,-0.066 0.44392,-0.132 0.66387,-0.202 0.40876,-0.13 0.81451,-0.268 1.21826,-0.411 0.15868,-0.056 0.31636,-0.114 0.47404,-0.172 0.45898,-0.17 0.91495,-0.349 1.3659,-0.537 0.0753,-0.031 0.15065,-0.064 0.22497,-0.096 5.18638,-2.19999 9.86858,-5.56198 13.63985,-9.92596 0.1617,-0.187 0.30733,-0.385 0.45396,-0.58299 5.31895,-6.40898 8.51876,-14.62194 8.51876,-23.5659 v -236.722 c 0,-19.33592 -14.95754,-35.24986 -33.95451,-36.89685 z m -300.0688,-82.84865 v 0 c -0.22798,-0.001 -0.60862,-0.001 -0.86674,-0.551 -0.25711,-0.54899 -0.012,-0.83999 0.13358,-1.01399 l 80.44311,-95.450599 c 1.08066,-1.280995 2.45158,-1.471994 3.17269,-1.471994 0.72111,0 2.09203,0.190999 3.17269,1.472994 l 80.44311,95.449599 c 0.14663,0.173 0.39169,0.464 0.13358,1.01399 -0.25812,0.55 -0.63876,0.55 -0.86674,0.55 h -34.22066 c -5.54694,0 -10.04334,4.47698 -10.04334,9.99996 v 30.47187 20.56991 21.65791 19.99992 39.08683 c 0,5.36298 -4.38191,9.72596 -9.76815,9.72596 h -57.70098 c -5.38624,0 -9.76815,-4.36298 -9.76815,-9.72596 v -39.08683 -19.99992 -21.66591 -20.56891 -30.46387 c 0,-5.52298 -4.4964,-9.99996 -10.04334,-9.99996 z M 43.058224,221.18715 c 0.790411,0 1.577808,-0.093 2.345119,-0.276 L 127.8732,201.18723 198.37943,184.3253 v 16.86193 19.99992 39.08683 c 0,16.39093 13.39279,29.72588 29.85483,29.72588 h 57.70098 c 16.46203,0 29.85482,-13.33495 29.85482,-29.72588 V 221.18715 201.18723 184.3373 l 70.39375,16.84993 82.39654,19.72292 c 0.76932,0.184 1.55671,0.277 2.34712,0.277 1.30765,0 2.5942,0.147 3.84158,0.432 l -157.97667,122.96948 -16.31841,12.70194 -23.65005,18.40892 c -11.15614,8.68397 -26.75645,8.70597 -37.93569,0.052 L 213.79194,356.32858 197.43837,343.67163 39.646502,221.54915 l -0.02109,-0.016 c 1.119832,-0.228 2.26879,-0.346 3.432812,-0.346 z M 26.165331,476.99307 c -0.08135,-0.67 -0.13458,-1.349 -0.13458,-2.04099 v -236.718 c 0,-0.613 0.03616,-1.218 0.100433,-1.815 l 154.989776,119.9555 z m 461.976419,-2.04099 c 0,0.72499 -0.0603,1.43399 -0.14964,2.13599 L 447.5958,445.8232 c -4.37789,-3.38799 -10.68912,-2.60199 -14.09382,1.75799 -3.40368,4.35998 -2.61327,10.64296 1.76562,14.03294 l 38.87475,30.08687 c -0.35353,0.065 -0.71007,0.12 -1.07062,0.163 -0.11851,0.014 -0.23602,0.037 -0.35453,0.049 -0.55841,0.055 -1.12385,0.086 -1.69632,0.086 H 43.17774 c -0.19685,0 -0.389682,-0.021 -0.585527,-0.028 -0.365577,-0.012 -0.732159,-0.021 -1.091711,-0.055 -0.449941,-0.044 -0.894861,-0.115 -1.336768,-0.194 -0.08436,-0.015 -0.171741,-0.023 -0.256105,-0.039 l 157.567901,-122.65148 29.08651,22.51191 c 9.20974,7.12897 20.23532,10.69095 31.26089,10.69095 11.07178,0 22.14455,-3.59398 31.37338,-10.77695 l 27.63223,-21.50891 52.59997,40.70983 c 4.3799,3.38898 10.69013,2.60299 14.09381,-1.758 3.40369,-4.35998 2.61328,-10.64295 -1.76562,-14.03294 L 333.14695,357.24557 488.06141,236.66008 c 0.0482,0.519 0.0803,1.043 0.0803,1.574 z"
     id="path2"
     inkscape:connector-curvature="0" /><path
     style="fill:#ffffff;stroke:#000000"
     d="m 416.291,424.63 c -0.25,-0.6 -0.56,-1.18 -0.92,-1.72 -0.37,-0.55 -0.79,-1.06 -1.25,-1.52 -0.46,-0.46 -0.97,-0.88 -1.52,-1.25 -0.54,-0.36 -1.12,-0.67 -1.72,-0.92 -0.61,-0.25 -1.24,-0.44 -1.87,-0.57 -1.29,-0.26 -2.62,-0.26 -3.91,0 -0.64,0.13 -1.27,0.32 -1.87,0.57 -0.61,0.25 -1.19,0.56 -1.73,0.92 -0.55,0.37 -1.06,0.79 -1.52,1.25 -0.46,0.46 -0.88,0.97 -1.24,1.52 -0.36,0.54 -0.67,1.12 -0.92,1.72 -0.25,0.61 -0.44,1.24 -0.57,1.87 -0.13,0.65 -0.2,1.31 -0.2,1.96 0,0.65 0.07,1.31 0.2,1.95 0.13,0.64 0.32,1.27 0.57,1.87 0.25,0.61 0.56,1.19 0.92,1.73 0.36,0.55 0.78,1.06 1.24,1.52 0.46,0.46 0.97,0.88 1.52,1.24 0.54,0.36 1.12,0.67 1.73,0.92 0.6,0.25 1.23,0.44 1.87,0.57 0.64,0.13 1.3,0.2 1.95,0.2 0.65,0 1.31,-0.07 1.96,-0.2 0.63,-0.13 1.26,-0.32 1.87,-0.57 0.6,-0.25 1.18,-0.56 1.72,-0.92 0.55,-0.36 1.06,-0.78 1.52,-1.24 0.46,-0.46 0.88,-0.97 1.25,-1.52 0.36,-0.54 0.67,-1.12 0.92,-1.73 0.25,-0.6 0.44,-1.23 0.57,-1.87 0.13,-0.64 0.19,-1.3 0.19,-1.95 0,-0.65 -0.06,-1.31 -0.19,-1.96 -0.13,-0.63 -0.32,-1.26 -0.57,-1.87 z"
     id="path4"
     inkscape:connector-curvature="0" /></g>
		</g>
</g>
<g
   id="g12">
</g>
<g
   id="g14">
</g>
<g
   id="g16">
</g>
<g
   id="g18">
</g>
<g
   id="g20">
</g>
<g
   id="g22">
</g>
<g
   id="g24">
</g>
<g
   id="g26">
</g>
<g
   id="g28">
</g>
<g
   id="g30">
</g>
<g
   id="g32">
</g>
<g
   id="g34">
</g>
<g
   id="g36">
</g>
<g
   id="g38">
</g>
<g
   id="g40">
</g>
</svg>