<?xml version="1.0" encoding="UTF-8" standalone="no"?>
<!-- Generator: Adobe Illustrator 19.0.0, SVG Export Plug-In . SVG Version: 6.00 Build 0)  -->

<svg
   xmlns:dc="http://purl.org/dc/elements/1.1/"
   xmlns:cc="http://creativecommons.org/ns#"
   xmlns:rdf="http://www.w3.org/1999/02/22-rdf-syntax-ns#"
   xmlns:svg="http://www.w3.org/2000/svg"
   xmlns="http://www.w3.org/2000/svg"
   xmlns:sodipodi="http://sodipodi.sourceforge.net/DTD/sodipodi-0.dtd"
   xmlns:inkscape="http://www.inkscape.org/namespaces/inkscape"
   version="1.1"
   id="Capa_1"
   x="0px"
   y="0px"
   viewBox="0 0 512.002 512.002"
   style="enable-background:new 0 0 512.002 512.002;"
   xml:space="preserve"
   sodipodi:docname="paper-plane.svg"
   inkscape:version="0.92.3 (2405546, 2018-03-11)"><metadata
   id="metadata47"><rdf:RDF><cc:Work
       rdf:about=""><dc:format>image/svg+xml</dc:format><dc:type
         rdf:resource="http://purl.org/dc/dcmitype/StillImage" /><dc:title></dc:title></cc:Work></rdf:RDF></metadata><defs
   id="defs45">
		
	
	
	
	

		
		
		
		
		
		
		
		
		
		
	</defs><sodipodi:namedview
   pagecolor="#ffffff"
   bordercolor="#666666"
   borderopacity="1"
   objecttolerance="10"
   gridtolerance="10"
   guidetolerance="10"
   inkscape:pageopacity="0"
   inkscape:pageshadow="2"
   inkscape:window-width="715"
   inkscape:window-height="481"
   id="namedview43"
   showgrid="false"
   inkscape:zoom="0.46093569"
   inkscape:cx="228.06545"
   inkscape:cy="256.00101"
   inkscape:window-x="-123"
   inkscape:window-y="26"
   inkscape:window-maximized="0"
   inkscape:current-layer="g6" />
<g
   id="g10">
	<g
   id="g6"
   transform="translate(-154.0345,4.3390001)">
			
			
		<g
   id="g218"
   transform="matrix(-0.83661868,-0.21956518,-0.23343666,0.78690436,617.28162,75.827256)"><polygon
     transform="translate(-47.728001,-36.879994)"
     id="polygon58"
     points="0,28.912 331.169,448.395 360.607,348.517 "
     style="fill:#c6cbcb" /><polygon
     transform="translate(-47.728001,-36.879994)"
     id="polygon60"
     points="360.607,348.517 231.47,234.064 208.737,293.313 331.169,448.395 "
     style="fill:#666666" /><polygon
     transform="translate(-47.728001,-36.879994)"
     id="polygon62"
     points="267.039,395.827 331.169,448.395 300.681,373.749 0,28.912 "
     style="fill:#d1d5d5" /><polygon
     transform="translate(-47.728001,-36.879994)"
     id="polygon64"
     points="300.681,373.749 128.262,483.087 0,28.912 "
     style="fill:#e2e5e7" /><polygon
     transform="translate(-47.728001,-36.879994)"
     id="polygon66"
     points="360.607,348.517 0,28.912 512,282.283 "
     style="fill:#e2e5e7" /><polygon
     transform="translate(-47.728001,-36.879994)"
     id="polygon68"
     points="300.845,373.618 182.646,238.382 123.753,467.124 128.262,483.087 "
     style="fill:#666666" /><polygon
     transform="translate(-47.728001,-36.879994)"
     id="polygon70"
     points="512,282.283 490.927,271.856 231.47,234.064 360.482,348.94 "
     style="fill:#666666" /><polygon
     transform="translate(-47.728001,-36.879994)"
     id="polygon72"
     points="182.646,238.382 123.753,467.124 191.301,248.285 "
     style="fill:#666666" /><polygon
     transform="translate(-47.728001,-36.879994)"
     id="polygon74"
     points="231.47,234.064 242.976,244.31 490.927,271.856 "
     style="fill:#666666" /><polygon
     transform="translate(-47.728001,-36.879994)"
     id="polygon76"
     points="300.845,373.618 266.658,395.304 292.821,416.96 "
     style="fill:#c6cbcb" /><polygon
     transform="translate(-47.728001,-36.879994)"
     style="fill:#666666"
     points="23.006,55.296 0,28.912 12.714,73.934 "
     id="polygon80" /><polygon
     transform="translate(-47.728001,-36.879994)"
     style="fill:#666666"
     points="51.141,54.22 0,28.912 27.91,53.648 "
     id="polygon82" /></g><g
   id="g86"
   transform="translate(-47.728001,-36.879994)">
</g><g
   id="g88"
   transform="translate(-47.728001,-36.879994)">
</g><g
   id="g90"
   transform="translate(-47.728001,-36.879994)">
</g><g
   id="g92"
   transform="translate(-47.728001,-36.879994)">
</g><g
   id="g94"
   transform="translate(-47.728001,-36.879994)">
</g><g
   id="g96"
   transform="translate(-47.728001,-36.879994)">
</g><g
   id="g98"
   transform="translate(-47.728001,-36.879994)">
</g><g
   id="g100"
   transform="translate(-47.728001,-36.879994)">
</g><g
   id="g102"
   transform="translate(-47.728001,-36.879994)">
</g><g
   id="g104"
   transform="translate(-47.728001,-36.879994)">
</g><g
   id="g106"
   transform="translate(-47.728001,-36.879994)">
</g><g
   id="g108"
   transform="translate(-47.728001,-36.879994)">
</g><g
   id="g110"
   transform="translate(-47.728001,-36.879994)">
</g><g
   id="g112"
   transform="translate(-47.728001,-36.879994)">
</g><g
   id="g114"
   transform="translate(-47.728001,-36.879994)">
</g></g>
</g>
<g
   id="g12">
</g>
<g
   id="g14">
</g>
<g
   id="g16">
</g>
<g
   id="g18">
</g>
<g
   id="g20">
</g>
<g
   id="g22">
</g>
<g
   id="g24">
</g>
<g
   id="g26">
</g>
<g
   id="g28">
</g>
<g
   id="g30">
</g>
<g
   id="g32">
</g>
<g
   id="g34">
</g>
<g
   id="g36">
</g>
<g
   id="g38">
</g>
<g
   id="g40">
</g>
</svg>